<?xml version="1.0" standalone="no"?><!DOCTYPE svg PUBLIC "-//W3C//DTD SVG 1.1//EN"
  "http://www.w3.org/Graphics/SVG/1.1/DTD/svg11.dtd">
<svg t="1715838736875" class="icon" viewBox="0 0 1024 1024" version="1.1" xmlns="http://www.w3.org/2000/svg" p-id="1869"
     xmlns:xlink="http://www.w3.org/1999/xlink" width="200" height="200">
  <path
    d="M512 967.111111c250.652444 0 455.111111-204.458667 455.111111-455.111111 0-250.652444-204.458667-455.111111-455.111111-455.111111-250.652444 0-455.111111 204.458667-455.111111 455.111111 0 250.652444 204.458667 455.111111 455.111111 455.111111z"
    fill="#8CD3EC" p-id="1870"></path>
  <path
    d="M512 284.444444a226.417778 226.417778 0 0 1 113.834667 30.492445l36.864 21.333333a14.222222 14.222222 0 0 1 5.176889 19.399111l-42.666667 73.898667a14.222222 14.222222 0 0 1-19.399111 5.176889l-34.759111-20.081778a113.777778 113.777778 0 1 0 21.333333 177.834667l30.208-30.151111a14.165333 14.165333 0 0 1 20.081778 0l60.416 60.359111a14.336 14.336 0 0 1 0 20.138666l-30.208 30.151112A227.555556 227.555556 0 1 1 512 284.444444z"
    fill="#707070" p-id="1871"></path>
</svg>
